<?xml version="1.0" encoding="utf-8"?>
<!-- Generator: Adobe Illustrator 22.1.0, SVG Export Plug-In . SVG Version: 6.00 Build 0)  -->
<!DOCTYPE svg PUBLIC "-//W3C//DTD SVG 1.1//EN" "http://www.w3.org/Graphics/SVG/1.1/DTD/svg11.dtd">
<svg version="1.1" id="レイヤー_1" xmlns="http://www.w3.org/2000/svg" xmlns:xlink="http://www.w3.org/1999/xlink" x="0px"
	 y="0px" viewBox="0 0 60 60" style="enable-background:new 0 0 60 60;" xml:space="preserve">
<style type="text/css">
	.st0{fill:#1C1C1C;}
</style>
<title>hamburger</title>
<g id="レイヤー_2_1_">
	<g id="レイヤー_1-2">
		<path class="st0" d="M7,20h46c1.1,0,2-0.9,2-2c0-1.1-0.9-2-2-2H7c-1.1,0-2,0.9-2,2C5,19.1,5.9,20,7,20z M53,28H7c-1.1,0-2,0.9-2,2
			s0.9,2,2,2h46c1.1,0,2-0.9,2-2S54.1,28,53,28z M53,40H7c-1.1,0-2,0.9-2,2s0.9,2,2,2h46c1.1,0,2-0.9,2-2S54.1,40,53,40z"/>
	</g>
</g>
</svg>
