<?xml version="1.0" encoding="utf-8"?>
<!-- Generator: Adobe Illustrator 24.0.2, SVG Export Plug-In . SVG Version: 6.00 Build 0)  -->
<svg version="1.1" id="レイヤー_1" xmlns="http://www.w3.org/2000/svg" xmlns:xlink="http://www.w3.org/1999/xlink" x="0px"
	 y="0px" viewBox="0 0 50 50" style="enable-background:new 0 0 50 50;" xml:space="preserve">
<title>icons</title>
<path id="パス_5" d="M43.4,41.5c0.4,0.5,0.4,1.2,0,1.7L41.7,45c-0.4,0.4-1.1,0.5-1.6,0.1c0,0,0,0-0.1-0.1L28.7,32.9
	c-0.1-0.1-0.2-0.3-0.3-0.4c-2.4,1.9-5.3,2.9-8.3,2.9c-7.8,0-14.1-6.7-14.1-15s6.3-15,14.1-15s14.1,6.7,14.1,15
	c0,3.1-0.9,6.3-2.7,8.8c0.1,0.1,0.3,0.1,0.4,0.3L43.4,41.5z M20.1,10.3c-5.4,0.1-9.6,4.6-9.4,10c-0.1,5.4,4,9.9,9.4,10
	c5.4-0.1,9.6-4.6,9.4-10C29.7,15,25.5,10.5,20.1,10.3L20.1,10.3z"/>
</svg>
