<?xml version="1.0" encoding="utf-8"?>
<!-- Generator: Adobe Illustrator 23.0.3, SVG Export Plug-In . SVG Version: 6.00 Build 0)  -->
<svg version="1.1" id="レイヤー_1" xmlns="http://www.w3.org/2000/svg" xmlns:xlink="http://www.w3.org/1999/xlink" x="0px"
	 y="0px" viewBox="0 0 50 50" style="enable-background:new 0 0 50 50;" xml:space="preserve">
<style type="text/css">
	.st0{fill:#FFFFFF;}
</style>
<g>
	<path class="st0" d="M28.7,26.1c-1.2-1.4-2.8-2-5-2.2c2-0.6,3.2-1.2,4.2-2.2c0.8-1,1.2-2.4,1.2-4c0-1.2-0.2-2.4-0.8-3.6
		c-0.6-1-1.4-1.8-2.6-2.4c-1-0.6-2.2-1-3.4-1.2c-1.4-0.2-3.8-0.4-7-0.4H7.2V40h8.3c3.4,0,5.8-0.2,7.4-0.4c1.6-0.2,2.8-0.6,3.8-1.2
		c1.2-0.6,2.2-1.6,2.8-2.8c0.6-1.2,1-2.6,1-4.2C30.5,29.1,29.9,27.3,28.7,26.1z M14.6,16.8h1.8c2,0,3.4,0.2,4,0.6
		c0.6,0.4,1,1.2,1,2.4c0,1.2-0.4,1.8-1.2,2.2c-0.8,0.4-2.2,0.6-4.2,0.6h-1.6v-5.8H14.6z M21.5,33.8c-0.8,0.4-2.2,0.8-4.2,0.8h-2.8
		v-6.6h3c2,0,3.4,0.2,4,0.8c0.8,0.6,1.2,1.4,1.2,2.6C22.7,32.6,22.3,33.2,21.5,33.8L21.5,33.8z"/>
	<path class="st0" d="M39,32.3c-2,0-3.8,1.8-3.8,3.8c0,2,1.8,3.8,3.8,3.8c2,0,3.8-1.8,3.8-3.8l0,0C42.8,34,41.2,32.3,39,32.3z"/>
	<rect x="35.8" y="10" class="st0" width="6.6" height="19.9"/>
</g>
</svg>
