<?xml version="1.0" encoding="utf-8"?>
<!-- Generator: Adobe Illustrator 23.0.3, SVG Export Plug-In . SVG Version: 6.00 Build 0)  -->
<svg version="1.1" id="レイヤー_1" xmlns="http://www.w3.org/2000/svg" xmlns:xlink="http://www.w3.org/1999/xlink" x="0px"
	 y="0px" viewBox="0 0 50 50" style="enable-background:new 0 0 50 50;" xml:space="preserve">
<style type="text/css">
	.st0{fill:#FFFFFF;}
</style>
<title>icons</title>
<path class="st0" d="M45,13.2c-1.4,0.6-2.9,1-4.5,1.2c1.6-1,2.8-2.5,3.4-4.3c-1.5,0.9-3.2,1.5-5,1.9c-2.9-3.1-7.9-3.3-11-0.4
	c-1.6,1.5-2.5,3.5-2.5,5.7c0,0.6,0.1,1.2,0.2,1.8c-6.3-0.3-12.1-3.3-16.1-8.1c-2.1,3.6-1,8.1,2.4,10.4c-1.2,0-2.4-0.4-3.5-1v0.1
	c0,3.7,2.6,6.9,6.2,7.7c-0.7,0.2-1.4,0.3-2.1,0.3c-0.5,0-1,0-1.5-0.1c1,3.2,3.9,5.4,7.3,5.4c-3.3,2.5-7.4,3.7-11.5,3.2
	c3.6,2.3,7.7,3.5,11.9,3.5c14.3,0,22.2-11.9,22.2-22.2c0-0.3,0-0.7,0-1C42.6,16.2,44,14.8,45,13.2z"/>
</svg>
