<?xml version="1.0" encoding="utf-8"?>
<!-- Generator: Adobe Illustrator 23.0.3, SVG Export Plug-In . SVG Version: 6.00 Build 0)  -->
<svg version="1.1" id="レイヤー_1" xmlns="http://www.w3.org/2000/svg" xmlns:xlink="http://www.w3.org/1999/xlink" x="0px"
	 y="0px" viewBox="287.6 395.9 50 50" style="enable-background:new 287.6 395.9 50 50;" xml:space="preserve">
<style type="text/css">
	.st0{fill:#FFFFFF;}
</style>
<g>
	<g>
		<path class="st0" d="M332.5,418.2c0-9-9-16.2-19.9-16.2s-19.9,7.2-19.9,16.2c0,8,7.2,14.7,16.7,15.9c0.7,0.2,1.5,0.5,1.7,1
			c0.2,0.5,0.2,1.2,0,1.7c0,0-0.2,1.5-0.2,1.7c0,0.5-0.5,2,1.7,1c2.2-1,11.4-6.7,15.7-11.7l0,0C331.3,424.9,332.5,421.6,332.5,418.2
			z M304.9,423.4h-4c-0.5,0-1-0.5-1-1v-8c-0.2-0.5,0.2-1,1-1c0.5,0,1,0.5,1,1v7h3c0.5,0,1,0.5,1,1S305.4,423.4,304.9,423.4z
			 M308.9,422.4c0,0.5-0.5,1-1,1s-1-0.5-1-1v-8c0-0.5,0.5-1,1-1s1,0.5,1,1V422.4z M318.6,422.4c0,0.5-0.2,0.7-0.7,1h-0.2
			c-0.2,0-0.7-0.2-0.7-0.5l-4.2-5.5v5c0,0.5-0.5,1-1,1s-1-0.5-1-1v-8c-0.2-0.5,0-1,0.5-1h0.2c0.5,0,0.7,0,1,0.2l4,5.5v-5
			c0-0.5,0.5-1,1-1s1,0.5,1,1v8.2H318.6z M324.8,417.4c0.5,0,1,0.5,1,1s-0.5,1-1,1h-3v2h3c0.5,0,1,0.5,1,1s-0.5,1-1,1h-4
			c-0.5,0-1-0.5-1-1v-4l0,0l0,0v-4l0,0c0-0.5,0.5-1,1-1h4c0.5,0,1,0.5,1,1s-0.5,1-1,1h-3v2H324.8z"/>
	</g>
</g>
</svg>
